<svg xmlns="http://www.w3.org/2000/svg" width="275" height="75" viewBox="0 0 275 75">
  <defs>
    <style>
      .cls-1 {
        fill: #1c1c1c;
        fill-rule: evenodd;
      }
    </style>
  </defs>
  <path id="bulthaup" class="cls-1" d="M17.905,20.679a12.631,12.631,0,0,0-4.769,4.57H12.913l0.1-2.7q0.127-2.348.128-5.142V5H9.979V54.385h1.978l0.893-5.205h0.287A11.651,11.651,0,0,0,17.825,53.5a14.377,14.377,0,0,0,6.666,1.523q7.017,0,10.893-4.666T39.26,37.087q0-8.76-3.684-13.314T24.619,19.219A14.324,14.324,0,0,0,17.905,20.679ZM35.91,37.024q0,7.3-2.871,11.251t-8.548,3.951q-5.837,0-8.6-3.4t-2.759-11.2v-0.54q0-8.029,2.647-11.521t8.771-3.491q11.355,0,11.355,14.949h0ZM48.478,19.885V42.419q0,12.6,11.834,12.6,8.643,0,12.025-5.4h0.191L73.1,54.385h2.679v-34.5H72.655V38.928q0,7.015-2.918,10.125t-9.106,3.11Q56,52.163,53.8,49.8t-2.2-7.57V19.885H48.478ZM90.549,5H87.391V54.385h3.158V5Zm16.362,45.322q-1.4-1.9-1.4-5.872V22.615h10.175V19.885H105.508V11.538h-1.627l-1.594,7.808-5.136,1.428v1.841h5.136V44.9q0,5.237,2.184,7.681t6.778,2.444a16.814,16.814,0,0,0,5.3-.762V51.719a23.792,23.792,0,0,1-5.231.508A5.106,5.106,0,0,1,106.911,50.322Zm44.432,4.063V31.819q0-12.6-11.8-12.6a17.265,17.265,0,0,0-7.368,1.4,11.618,11.618,0,0,0-4.912,4.507h-0.223l0.16-4.412V5H124.04V54.385H127.2V35.342q0-7.014,2.886-10.14t9.107-3.126q4.623,0,6.825,2.364t2.2,7.57V54.385h3.126Zm34.607,0V31.438q0-6.252-2.822-9.2T174.6,19.282A26.528,26.528,0,0,0,163.3,21.948l1.18,2.73a21.744,21.744,0,0,1,9.984-2.666q4.465,0,6.475,2.507t2.009,7.427v2.285l-6.6.19q-8.007.159-12.233,2.952a8.88,8.88,0,0,0-4.226,7.839,9.283,9.283,0,0,0,2.839,7.2q2.838,2.6,7.942,2.6a14.42,14.42,0,0,0,6.523-1.381,16.437,16.437,0,0,0,5.374-4.713h0.256l0.8,5.459h2.328ZM165.234,50.37a6.418,6.418,0,0,1-1.994-5.031,6.529,6.529,0,0,1,3.11-5.983q3.109-1.92,10.414-2.269l6.061-.254v3.4q0,5.618-3.206,8.776t-8.756,3.158A8.125,8.125,0,0,1,165.234,50.37ZM196.8,19.885V42.419q0,12.6,11.834,12.6,8.643,0,12.025-5.4h0.191l0.574,4.761H224.1v-34.5h-3.125V38.928q0,7.015-2.919,10.125t-9.106,3.11q-4.626,0-6.826-2.364t-2.2-7.57V19.885H196.8Zm64.319,30.453q3.876-4.681,3.875-13.187,0-8.76-3.684-13.346t-10.7-4.586q-7.847,0-11.419,5.586h-0.191l-0.606-4.919h-2.679V70h3.157V56.86q0-2.793-.127-5.142l-0.1-2.666h0.223q3.667,5.967,11.674,5.967A13,13,0,0,0,261.114,50.338Zm-19.521-1.571q-2.727-3.459-2.727-11.553V36.2q0-7.49,2.839-10.807t8.9-3.317q11.035,0,11.036,15.2,0,7.078-2.918,11.013a9.663,9.663,0,0,1-8.245,3.936Q244.32,52.227,241.593,48.767Z"/>
</svg>
